{"title":"Mallika I Love You (2010) Telugu 1CD HDRip XviD MP3@Mastitorrent","uid":6499527,"size":879914538,"categoryP":"video","categoryS":"movies","magnet":"?xt=urn:btih:dc4393dbd7c866fad66990fd8204105e67c84920&amp;dn=Mallika+I+Love+You+%282010%29+Telugu+1CD+HDRip+XviD+MP3%40Mastitorrent&amp;tr=udp%3A%2F%2Ftracker.openbittorrent.com%3A80&amp;tr=udp%3A%2F%2Fopen.demonii.com%3A1337&amp;tr=udp%3A%2F%2Ftracker.coppersurfer.tk%3A6969&amp;tr=udp%3A%2F%2Fexodus.desync.com%3A6969","seeders":0,"leechers":1,"uploader":"amanrulz","files":9,"time":1309198123,"description":"mastitorrents.com\n &lt;a href=&quot;\nhttp://mastitorrents.com/forums/index.php&quot; rel=&quot;nofollow&quot; target=&quot;_NEW&quot;&gt;\nhttp://mastitorrents.com/forums/index.php&lt;/a&gt;\n\nGeneral \nComplete name                    : Mallika I Love You (2010)1CD HDRip XviD MP3\nFormat                           : AVI\n Format/Info                      : Audio Video Interleave File size                              : 838 MiB\n Duration                         : 2h 12mn\n Overall bit rate                 : 881 Kbps\n Writing application              : Lavf51.12.1\n Video\n ID                               : 0\n Format                           : MPEG-4 Visual\n Format profile                   : Simple@L1\n Format settings, BVOP            : No\n Format settings, QPel            : No\n Format settings, GMC             : No warppoints\n Format settings, Matrix          : Default (H.263)\n Codec ID                         : DX50\n Codec ID/Hint                    : DivX 5\n Duration                         : 2h 12mn\n Bit rate                         : 741 Kbps\n Width                            : 624 pixels\n Height                           : 288 pixels\n Display aspect ratio             : 2.2:1\n Frame rate                       : 23.976 fps\n Color space                      : YUV\n Chroma subsampling               : 4:2:0\n Bit depth                        : 8 bits\n Scan type                        : Progressive\n Compression mode                 : Lossy\n Bits/(Pixel*Frame)               : 0.172\n Stream size                      : 705 MiB (84%)\n Writing library                  : Lavc51.40.4\n Audio\n ID                               : 1\n Format                           : MPEG Audio\n Format version                   : Version 1\n Format profile                   : Layer 3\n Mode                             : Joint stereo\n Mode extension                   : MS Stereo\n Codec ID                         : 55\n Codec ID/Hint                    : MP3\n Duration                         : 2h 12mn\n Bit rate mode                    : Constant\n Bit rate                         : 128 Kbps\n Channel(s)                       : 2 channels\n Sampling rate                    : 44.1 KHz\n Compression mode                 : Lossy\n Stream size                      : 122 MiB (15%)\n Alignment                        : Aligned on interleaves\n Interleave, duration             : 26 ms (0.63 video frame)\n Interleave, preload duration     : 26 ms\n Writing library                  : LAME3.97","torrent":{"xt":"urn:btih:dc4393dbd7c866fad66990fd8204105e67c84920","amp;dn":"Mallika+I+Love+You+%282010%29+Telugu+1CD+HDRip+XviD+MP3%40Mastitorrent","amp;tr":["udp%3A%2F%2Ftracker.openbittorrent.com%3A80","udp%3A%2F%2Fopen.demonii.com%3A1337","udp%3A%2F%2Ftracker.coppersurfer.tk%3A6969","udp%3A%2F%2Fexodus.desync.com%3A6969"],"infoHash":"dc4393dbd7c866fad66990fd8204105e67c84920","infoHashBuffer":{"type":"Buffer","data":[220,67,147,219,215,200,102,250,214,105,144,253,130,4,16,94,103,200,73,32]},"announce":[],"urlList":[]}}